<svg width="12" height="12" viewBox="0 0 12 12" fill="none" xmlns="http://www.w3.org/2000/svg">
<path fill-rule="evenodd" clip-rule="evenodd" d="M1.10439 0.795024C1.36067 0.538743 1.76989 0.532447 2.01841 0.780962L11.0179 9.7805C11.2665 10.029 11.2602 10.4382 11.0039 10.6945C10.7476 10.9508 10.3384 10.9571 10.0899 10.7086L1.09033 1.70904C0.841813 1.46052 0.848108 1.05131 1.10439 0.795024Z" fill="#A6A6A6"/>
<path fill-rule="evenodd" clip-rule="evenodd" d="M11.0038 1.10443C11.2601 1.36071 11.2664 1.76993 11.0179 2.01844L2.01836 11.018C1.76985 11.2665 1.36063 11.2602 1.10435 11.0039C0.848065 10.7476 0.841769 10.3384 1.09028 10.0899L10.0898 1.09037C10.3383 0.841851 10.7476 0.848147 11.0038 1.10443Z" fill="#A6A6A6"/>
</svg>
