<svg viewBox="0 0 26 26" fill="none" xmlns="http://www.w3.org/2000/svg">
<path d="M20.93 10.8333H5.08083C3.4775 10.8333 2.17749 9.5225 2.17749 7.93V5.08083C2.17749 3.4775 3.48833 2.17749 5.08083 2.17749H20.93C22.5333 2.17749 23.8333 3.48833 23.8333 5.08083V7.93C23.8333 9.5225 22.5225 10.8333 20.93 10.8333Z" stroke="#1E65FF" stroke-width="1.5" stroke-linecap="round" stroke-linejoin="round"/>
<path d="M20.93 23.8333H5.08083C3.4775 23.8333 2.17749 22.5225 2.17749 20.93V18.0808C2.17749 16.4775 3.48833 15.1775 5.08083 15.1775H20.93C22.5333 15.1775 23.8333 16.4883 23.8333 18.0808V20.93C23.8333 22.5225 22.5225 23.8333 20.93 23.8333Z" stroke="#1E65FF" stroke-width="1.5" stroke-linecap="round" stroke-linejoin="round"/>
<path d="M6.5 5.41669V7.58335" stroke="#1E65FF" stroke-width="1.5" stroke-linecap="round" stroke-linejoin="round"/>
<path d="M10.8334 5.41669V7.58335" stroke="#1E65FF" stroke-width="1.5" stroke-linecap="round" stroke-linejoin="round"/>
<path d="M6.5 18.4167V20.5834" stroke="#1E65FF" stroke-width="1.5" stroke-linecap="round" stroke-linejoin="round"/>
<path d="M10.8334 18.4167V20.5834" stroke="#1E65FF" stroke-width="1.5" stroke-linecap="round" stroke-linejoin="round"/>
<path d="M15.1666 6.5H19.5" stroke="#1E65FF" stroke-width="1.5" stroke-linecap="round" stroke-linejoin="round"/>
<path d="M15.1666 19.5H19.5" stroke="#1E65FF" stroke-width="1.5" stroke-linecap="round" stroke-linejoin="round"/>
</svg>
