<svg width="26" height="26" viewBox="0 0 26 26" fill="none" xmlns="http://www.w3.org/2000/svg">
<path d="M9.23605 11.6645C9.11786 11.6527 8.97605 11.6527 8.84605 11.6645C6.03332 11.5699 3.79968 9.2654 3.79968 6.42904C3.79968 3.53358 6.13968 1.18176 9.04696 1.18176C11.9424 1.18176 14.2942 3.53358 14.2942 6.42904C14.2824 9.2654 12.0488 11.5699 9.23605 11.6645Z" stroke="#1E65FF" stroke-width="1.5" stroke-linecap="round" stroke-linejoin="round"/>
<path d="M17.8041 3.54541C20.0969 3.54541 21.9405 5.40086 21.9405 7.68177C21.9405 9.91541 20.1678 11.7354 17.9578 11.8181C17.8632 11.8063 17.7569 11.8063 17.6505 11.8181" stroke="#1E65FF" stroke-width="1.5" stroke-linecap="round" stroke-linejoin="round"/>
<path d="M3.32676 16.0255C0.466763 17.94 0.466763 21.06 3.32676 22.9628C6.57676 25.1373 11.9068 25.1373 15.1568 22.9628C18.0168 21.0482 18.0168 17.9282 15.1568 16.0255C11.9186 13.8628 6.58858 13.8628 3.32676 16.0255Z" stroke="#1E65FF" stroke-width="1.5" stroke-linecap="round" stroke-linejoin="round"/>
<path d="M20.0851 22.4546C20.936 22.2773 21.7396 21.9346 22.4014 21.4264C24.2451 20.0436 24.2451 17.7627 22.4014 16.38C21.7514 15.8836 20.9596 15.5527 20.1205 15.3636" stroke="#1E65FF" stroke-width="1.5" stroke-linecap="round" stroke-linejoin="round"/>
</svg>
