<svg width="16" height="18" viewBox="0 0 16 18" fill="none" xmlns="http://www.w3.org/2000/svg">
<path d="M15.3334 4.03351C12.6201 3.76126 9.89045 3.62101 7.16897 3.62101C5.55564 3.62101 3.9423 3.70351 2.32897 3.86851L0.666748 4.03351M5.14823 3.20025L5.32749 2.1195C5.45786 1.33575 5.55564 0.75 6.93267 0.75H9.06749C10.4445 0.75 10.5505 1.36875 10.6727 2.12775L10.8519 3.20025M13.5815 6.64051L13.0519 14.9483C12.9622 16.2435 12.8889 17.25 10.6156 17.25H5.38445C3.11111 17.25 3.03778 16.2435 2.94815 14.9483L2.41852 6.64051M8.00017 13L8.00017 8.7143M10.0001 10.1429L8.00008 8L6.00008 10.1428" stroke="#1E65FF" stroke-width="1.2" stroke-linecap="round" stroke-linejoin="round"/>
</svg>
