<svg width="20" height="16" viewBox="0 0 20 16" fill="none" xmlns="http://www.w3.org/2000/svg">
<path d="M5.01737 13.199C4.02607 13.1085 3.04782 12.6558 2.2913 11.8669C0.569567 10.0692 0.569567 7.1205 2.2913 5.32282L5.14781 2.34826C6.86954 0.55058 9.69997 0.55058 11.4347 2.34826C13.1565 4.14594 13.1565 7.09465 11.4347 8.89233L10.013 10.3796M14.9826 2.80101C15.9739 2.89155 16.9522 3.3442 17.7087 4.13311C19.4304 5.93079 19.4304 8.8795 17.7087 10.6772L14.8522 13.6517C13.1305 15.4494 10.3 15.4494 8.56526 13.6517C6.84353 11.8541 6.84353 8.90535 8.56526 7.10767L9.987 5.62039" stroke="#1E65FF" stroke-width="1.3" stroke-linecap="round" stroke-linejoin="round"/>
</svg>
