<svg width="18" height="18" viewBox="0 0 18 18" fill="none" xmlns="http://www.w3.org/2000/svg">
<path fill-rule="evenodd" clip-rule="evenodd" d="M4.28991 2.7C3.37864 2.7 2.63994 3.4387 2.63994 4.34997C2.63994 5.26127 3.37866 6 4.28991 6C5.20119 6 5.93994 5.26125 5.93994 4.34997C5.93994 3.43872 5.20121 2.7 4.28991 2.7ZM1.43994 4.34997C1.43994 2.77596 2.7159 1.5 4.28991 1.5C5.86391 1.5 7.13994 2.77594 7.13994 4.34997C7.13994 5.92399 5.86393 7.2 4.28991 7.2C2.71588 7.2 1.43994 5.92397 1.43994 4.34997Z" fill="#1E65FF"/>
<path fill-rule="evenodd" clip-rule="evenodd" d="M13.2899 11.7C12.3786 11.7 11.6399 12.4387 11.6399 13.35C11.6399 14.2613 12.3787 15 13.2899 15C14.2012 15 14.9399 14.2612 14.9399 13.35C14.9399 12.4387 14.2012 11.7 13.2899 11.7ZM10.4399 13.35C10.4399 11.776 11.7159 10.5 13.2899 10.5C14.8639 10.5 16.1399 11.7759 16.1399 13.35C16.1399 14.924 14.8639 16.2 13.2899 16.2C11.7159 16.2 10.4399 14.924 10.4399 13.35Z" fill="#1E65FF"/>
<path fill-rule="evenodd" clip-rule="evenodd" d="M14.1829 1.31675C14.5278 1.54615 14.6214 2.01171 14.392 2.3566L4.85702 16.6918C4.62762 17.0367 4.16206 17.1303 3.81718 16.9009C3.47229 16.6715 3.37867 16.2059 3.60807 15.8611L13.143 1.52586C13.3724 1.18098 13.838 1.08735 14.1829 1.31675Z" fill="#1E65FF"/>
</svg>
