<svg viewBox="0 0 26 26" fill="none" xmlns="http://www.w3.org/2000/svg">
<path d="M22.97 19.33C22.97 19.69 22.89 20.06 22.72 20.42C22.55 20.78 22.33 21.12 22.04 21.44C21.55 21.98 21.01 22.37 20.4 22.62C19.8 22.87 19.15 23 18.45 23C17.43 23 16.34 22.76 15.19 22.27C14.04 21.78 12.89 21.12 11.75 20.29C10.6 19.45 9.51 18.52 8.47 17.49C7.44 16.45 6.51 15.36 5.68 14.22C4.86 13.08 4.2 11.94 3.72 10.81C3.24 9.67 3 8.58 3 7.54C3 6.86 3.12 6.21 3.36 5.61C3.6 5 3.98 4.44 4.51 3.94C5.15 3.31 5.85 3 6.59 3C6.87 3 7.15 3.06 7.4 3.18C7.66 3.3 7.89 3.48 8.07 3.74L10.39 7.01C10.57 7.26 10.7 7.49 10.79 7.71C10.88 7.92 10.93 8.13 10.93 8.32C10.93 8.56 10.86 8.8 10.72 9.03C10.59 9.26 10.4 9.5 10.16 9.74L9.4 10.53C9.29 10.64 9.24 10.77 9.24 10.93C9.24 11.01 9.25 11.08 9.27 11.16C9.3 11.24 9.33 11.3 9.35 11.36C9.53 11.69 9.84 12.12 10.28 12.64C10.73 13.16 11.21 13.69 11.73 14.22C12.27 14.75 12.79 15.24 13.32 15.69C13.84 16.13 14.27 16.43 14.61 16.61C14.66 16.63 14.72 16.66 14.79 16.69C14.87 16.72 14.95 16.73 15.04 16.73C15.21 16.73 15.34 16.67 15.45 16.56L16.21 15.81C16.46 15.56 16.7 15.37 16.93 15.25C17.16 15.11 17.39 15.04 17.64 15.04C17.83 15.04 18.03 15.08 18.25 15.17C18.47 15.26 18.7 15.39 18.95 15.56L22.26 17.91C22.52 18.09 22.7 18.3 22.81 18.55C22.91 18.8 22.97 19.05 22.97 19.33Z" stroke="#BFBFBF" stroke-width="1.5" stroke-miterlimit="10"/>
<path d="M19.5 10C19.5 9.4 19.03 8.48 18.33 7.73C17.69 7.04 16.84 6.5 16 6.5" stroke="#BFBFBF" stroke-width="1.5" stroke-linecap="round" stroke-linejoin="round"/>
<path d="M23 10C23 6.13 19.87 3 16 3" stroke="#BFBFBF" stroke-width="1.5" stroke-linecap="round" stroke-linejoin="round"/>
</svg>
