<svg width="14" height="14" viewBox="0 0 14 14" fill="none" xmlns="http://www.w3.org/2000/svg">
<path d="M13.8235 13.0022L9.80674 8.97918C10.5986 8.02871 11.0749 6.81407 11.0749 5.48744C11.0749 2.46088 8.59309 0 5.54032 0C2.48755 0 0 2.46375 0 5.49031C0 8.51687 2.48181 10.9777 5.53458 10.9777C6.83144 10.9777 8.025 10.5327 8.97182 9.78894L13.003 13.8234C13.2382 14.0589 13.5883 14.0589 13.8235 13.8234C14.0588 13.5879 14.0588 13.2376 13.8235 13.0022ZM1.17635 5.49031C1.17635 3.11271 3.13311 1.18019 5.53458 1.18019C7.93606 1.18019 9.89282 3.11271 9.89282 5.49031C9.89282 7.86791 7.93606 9.80043 5.53458 9.80043C3.13311 9.80043 1.17635 7.86504 1.17635 5.49031Z" fill="#A6A6A6"/>
</svg>
