<svg viewBox="0 0 26 26" fill="none" xmlns="http://www.w3.org/2000/svg">
<path d="M13 16.5455C14.9581 16.5455 16.5455 14.9581 16.5455 13C16.5455 11.0419 14.9581 9.45454 13 9.45454C11.0419 9.45454 9.45459 11.0419 9.45459 13C9.45459 14.9581 11.0419 16.5455 13 16.5455Z" stroke="#BFBFBF" stroke-width="1.5" stroke-miterlimit="10" stroke-linecap="round" stroke-linejoin="round"/>
<path d="M1.18176 14.0399V11.9599C1.18176 10.7308 2.18631 9.71447 3.42722 9.71447C5.56631 9.71447 6.44085 8.20175 5.3654 6.34629C4.75085 5.28266 5.11722 3.89993 6.19267 3.28538L8.23722 2.11538C9.17085 1.55993 10.3763 1.89084 10.9318 2.82447L11.0618 3.04902C12.1254 4.90447 13.8745 4.90447 14.9499 3.04902L15.0799 2.82447C15.6354 1.89084 16.8409 1.55993 17.7745 2.11538L19.819 3.28538C20.8945 3.89993 21.2609 5.28266 20.6463 6.34629C19.5709 8.20175 20.4454 9.71447 22.5845 9.71447C23.8136 9.71447 24.8299 10.719 24.8299 11.9599V14.0399C24.8299 15.269 23.8254 16.2854 22.5845 16.2854C20.4454 16.2854 19.5709 17.7981 20.6463 19.6536C21.2609 20.729 20.8945 22.0999 19.819 22.7145L17.7745 23.8845C16.8409 24.4399 15.6354 24.109 15.0799 23.1754L14.9499 22.9508C13.8863 21.0954 12.1372 21.0954 11.0618 22.9508L10.9318 23.1754C10.3763 24.109 9.17085 24.4399 8.23722 23.8845L6.19267 22.7145C5.11722 22.0999 4.75085 20.7172 5.3654 19.6536C6.44085 17.7981 5.56631 16.2854 3.42722 16.2854C2.18631 16.2854 1.18176 15.269 1.18176 14.0399Z" stroke="#BFBFBF" stroke-width="1.5" stroke-miterlimit="10" stroke-linecap="round" stroke-linejoin="round"/>
</svg>
