<svg width="28" height="28" viewBox="0 0 28 28" fill="none" xmlns="http://www.w3.org/2000/svg">
<path d="M14 21.15C17.9488 21.15 21.15 17.9488 21.15 14C21.15 10.0512 17.9488 6.85 14 6.85C10.0511 6.85 6.84998 10.0512 6.84998 14C6.84998 17.9488 10.0511 21.15 14 21.15Z" stroke="#BFBFBF" stroke-width="1.6" stroke-linecap="round" stroke-linejoin="round"/>
<path d="M22.568 22.568L22.412 22.412M22.412 5.588L22.568 5.432L22.412 5.588ZM5.432 22.568L5.588 22.412L5.432 22.568ZM14 2.096V2V2.096ZM14 26V25.904V26ZM2.096 14H2H2.096ZM26 14H25.904H26ZM5.588 5.588L5.432 5.432L5.588 5.588Z" stroke="#BFBFBF" stroke-width="2.4" stroke-linecap="round" stroke-linejoin="round"/>
</svg>
